<svg xmlns="http://www.w3.org/2000/svg" xmlns:xlink="http://www.w3.org/1999/xlink" width="1080" zoomAndPan="magnify" viewBox="0 0 810 809.999993" height="1080" preserveAspectRatio="xMidYMid meet" version="1.0"><defs><g/><clipPath id="31056f98fa"><rect x="0" width="674" y="0" height="545"/></clipPath><clipPath id="2e847a382c"><rect x="0" width="674" y="0" height="545"/></clipPath></defs><g transform="matrix(1, 0, 0, 1, 54, 140)"><g clip-path="url(#31056f98fa)"><g fill="#ffffff" fill-opacity="1"><g transform="translate(0.451795, 435.162316)"><g><path d="M 345.953125 -164.328125 C 345.953125 -160.421875 345.847656 -156.710938 345.640625 -153.203125 C 345.441406 -149.703125 345.03125 -144.96875 344.40625 -139 L 96.375 -139 C 99.050781 -121.695312 104.554688 -106.972656 112.890625 -94.828125 C 121.234375 -82.679688 131.582031 -73.363281 143.9375 -66.875 C 156.300781 -60.382812 169.789062 -57.140625 184.40625 -57.140625 C 203.351562 -57.140625 218.695312 -60.894531 230.4375 -68.40625 C 242.175781 -75.925781 250.722656 -86.378906 256.078125 -99.765625 L 337.625 -99.765625 C 333.707031 -85.554688 327.269531 -71.863281 318.3125 -58.6875 C 309.351562 -45.507812 298.382812 -33.820312 285.40625 -23.625 C 272.4375 -13.4375 257.5625 -5.359375 240.78125 0.609375 C 224 6.585938 205.722656 9.578125 185.953125 9.578125 C 162.066406 9.578125 140.082031 5.203125 120 -3.546875 C 99.925781 -12.304688 82.523438 -24.40625 67.796875 -39.84375 C 53.078125 -55.289062 41.648438 -73.207031 33.515625 -93.59375 C 25.378906 -113.976562 21.3125 -135.703125 21.3125 -158.765625 C 21.3125 -182.035156 25.378906 -203.8125 33.515625 -224.09375 C 41.648438 -244.382812 53.078125 -262.25 67.796875 -277.6875 C 82.523438 -293.132812 99.925781 -305.234375 120 -313.984375 C 140.082031 -322.734375 162.066406 -327.109375 185.953125 -327.109375 C 209.835938 -327.109375 231.613281 -322.785156 251.28125 -314.140625 C 270.945312 -305.492188 287.832031 -293.601562 301.9375 -278.46875 C 316.039062 -263.332031 326.898438 -245.984375 334.515625 -226.421875 C 342.140625 -206.859375 345.953125 -186.160156 345.953125 -164.328125 Z M 99.46875 -196.765625 L 269.65625 -196.765625 C 268.632812 -208.703125 264.207031 -219.5625 256.375 -229.34375 C 248.550781 -239.132812 238.460938 -247.015625 226.109375 -252.984375 C 213.753906 -258.953125 200.265625 -261.9375 185.640625 -261.9375 C 173.078125 -261.9375 161.03125 -259.617188 149.5 -254.984375 C 137.96875 -250.359375 127.828125 -243.253906 119.078125 -233.671875 C 110.328125 -224.097656 103.789062 -211.796875 99.46875 -196.765625 Z M 99.46875 -196.765625 "/></g></g></g><g fill="#ffffff" fill-opacity="1"><g transform="translate(344.513529, 435.162316)"><g><path d="M 94.515625 0 L 8.03125 0 L 113.046875 -163.71875 L 12.046875 -317.546875 L 99.765625 -317.546875 L 164.953125 -213.140625 L 165.25 -213.140625 L 230.4375 -317.546875 L 317.84375 -317.546875 L 217.15625 -163.71875 L 322.484375 0 L 233.828125 0 L 164.328125 -111.515625 Z M 94.515625 0 "/></g></g></g></g></g><g transform="matrix(1, 0, 0, 1, 62, 132)"><g clip-path="url(#2e847a382c)"><g fill="#ffffff" fill-opacity="1"><g transform="translate(0.542947, 435.071165)"><g><path d="M 345.953125 -164.328125 C 345.953125 -160.421875 345.847656 -156.710938 345.640625 -153.203125 C 345.441406 -149.703125 345.03125 -144.96875 344.40625 -139 L 96.375 -139 C 99.050781 -121.695312 104.554688 -106.972656 112.890625 -94.828125 C 121.234375 -82.679688 131.582031 -73.363281 143.9375 -66.875 C 156.300781 -60.382812 169.789062 -57.140625 184.40625 -57.140625 C 203.351562 -57.140625 218.695312 -60.894531 230.4375 -68.40625 C 242.175781 -75.925781 250.722656 -86.378906 256.078125 -99.765625 L 337.625 -99.765625 C 333.707031 -85.554688 327.269531 -71.863281 318.3125 -58.6875 C 309.351562 -45.507812 298.382812 -33.820312 285.40625 -23.625 C 272.4375 -13.4375 257.5625 -5.359375 240.78125 0.609375 C 224 6.585938 205.722656 9.578125 185.953125 9.578125 C 162.066406 9.578125 140.082031 5.203125 120 -3.546875 C 99.925781 -12.304688 82.523438 -24.40625 67.796875 -39.84375 C 53.078125 -55.289062 41.648438 -73.207031 33.515625 -93.59375 C 25.378906 -113.976562 21.3125 -135.703125 21.3125 -158.765625 C 21.3125 -182.035156 25.378906 -203.8125 33.515625 -224.09375 C 41.648438 -244.382812 53.078125 -262.25 67.796875 -277.6875 C 82.523438 -293.132812 99.925781 -305.234375 120 -313.984375 C 140.082031 -322.734375 162.066406 -327.109375 185.953125 -327.109375 C 209.835938 -327.109375 231.613281 -322.785156 251.28125 -314.140625 C 270.945312 -305.492188 287.832031 -293.601562 301.9375 -278.46875 C 316.039062 -263.332031 326.898438 -245.984375 334.515625 -226.421875 C 342.140625 -206.859375 345.953125 -186.160156 345.953125 -164.328125 Z M 99.46875 -196.765625 L 269.65625 -196.765625 C 268.632812 -208.703125 264.207031 -219.5625 256.375 -229.34375 C 248.550781 -239.132812 238.460938 -247.015625 226.109375 -252.984375 C 213.753906 -258.953125 200.265625 -261.9375 185.640625 -261.9375 C 173.078125 -261.9375 161.03125 -259.617188 149.5 -254.984375 C 137.96875 -250.359375 127.828125 -243.253906 119.078125 -233.671875 C 110.328125 -224.097656 103.789062 -211.796875 99.46875 -196.765625 Z M 99.46875 -196.765625 "/></g></g></g><g fill="#ffffff" fill-opacity="1"><g transform="translate(344.604681, 435.071165)"><g><path d="M 94.515625 0 L 8.03125 0 L 113.046875 -163.71875 L 12.046875 -317.546875 L 99.765625 -317.546875 L 164.953125 -213.140625 L 165.25 -213.140625 L 230.4375 -317.546875 L 317.84375 -317.546875 L 217.15625 -163.71875 L 322.484375 0 L 233.828125 0 L 164.328125 -111.515625 Z M 94.515625 0 "/></g></g></g></g></g></svg>